{
.appVersion = "3337";
.formatVersion = 3;
DisplayStrings = (
"̇",
A,
a
);
axes = (
{
name = Weight;
tag = wght;
}
);
customParameters = (
{
name = "Enforce Compatibility Check";
value = 1;
}
);
date = "2025-06-06 06:47:23 +0000";
familyName = "abc-siesta-verano";
fontMaster = (
{
axesValues = (
100
);
customParameters = (
{
name = "Master Icon Glyph Name";
value = a;
}
);
guides = (
{
angle = 180;
pos = (21,400);
},
{
angle = 180;
pos = (16,100);
},
{
angle = 180;
pos = (29,700);
},
{
angle = 180;
pos = (16,200);
},
{
angle = 180;
pos = (16,300);
},
{
angle = 180;
pos = (29,600);
},
{
angle = 180;
pos = (29,500);
},
{
angle = 180;
pos = (21,400);
},
{
angle = 180;
pos = (16,100);
},
{
angle = 180;
pos = (29,700);
},
{
angle = 180;
pos = (16,200);
},
{
angle = 180;
pos = (16,300);
},
{
angle = 180;
pos = (29,600);
},
{
angle = 180;
pos = (29,500);
},
{
angle = 180;
pos = (21,400);
},
{
angle = 180;
pos = (16,100);
},
{
angle = 180;
pos = (29,700);
},
{
angle = 180;
pos = (16,200);
},
{
angle = 180;
pos = (16,300);
},
{
angle = 180;
pos = (29,600);
},
{
angle = 180;
pos = (29,500);
},
{
angle = 180;
pos = (-189,-101);
}
);
iconName = Light;
id = m003;
metricValues = (
{
over = -10;
},
{
over = 10;
pos = 600;
},
{
over = 10;
pos = 800;
},
{
over = -10;
pos = -100;
}
);
name = Regular;
userData = {
GSOffsetAutoStroke = 1;
GSOffsetCapStyle = 4;
GSOffsetHorizontal = 25;
GSOffsetMakeStroke = 1;
GSOffsetVertical = 30;
};
},
{
axesValues = (
200
);
customParameters = (
{
name = paramArea;
value = 400;
},
{
name = paramDepth;
value = 10;
}
);
guides = (
{
angle = 180;
pos = (124,400);
},
{
angle = 180;
pos = (119,100);
},
{
angle = 180;
pos = (132,700);
},
{
angle = 180;
pos = (119,200);
},
{
angle = 180;
pos = (119,300);
},
{
angle = 180;
pos = (132,600);
},
{
angle = 180;
pos = (132,500);
},
{
angle = 180;
pos = (124,400);
},
{
angle = 180;
pos = (119,100);
},
{
angle = 180;
pos = (132,700);
},
{
angle = 180;
pos = (119,200);
},
{
angle = 180;
pos = (119,300);
},
{

glyphs = (
{
glyphname = A;
lastChange = "2025-09-30 06:35:50 +0000";
layers = (
{
background = {
shapes = (
{
ref = _A;
}
);
};
layerId = m003;
shapes = (
{
attr = {
identifier = ID0x108b4c3a0;
lineCapEnd = "4";
lineCapStart = "4";
};
closed = 0;
nodes = (
(555,0,l),
(267,700,l),
(184,700,l)
);
},
{
attr = {
identifier = ID0x108b4c3a0;
lineCapEnd = "4";
lineCapStart = "4";
};
closed = 0;
nodes = (
(349,500,l),
(142,600,l),
(-108,0,l),
(510,100,l)
);
}
);
width = 446;
},
{
layerId = "6AEB73DF-AB25-40A2-91CF-25D7B6E2A2D2";
shapes = (
{
ref = a;
}
);
width = 463;
},
{
layerId = m01;
shapes = (
{
ref = a;
}
);
width = 263;
}
);
unicode = 65;
},
{
glyphname = B;
lastChange = "2025-09-30 06:35:50 +0000";
layers = (
{
background = {
shapes = (
{
ref = _B;
}
);
};
layerId = m003;
shapes = (
{
attr = {
identifier = ID0x1053f8e90;
lineCapEnd = "4";
lineCapStart = "4";
};
closed = 0;
nodes = (
(-24,500,l),
(556,700,l),
(266,0,l),
(184,0,l),
(-150,800,l)
);
}
);
width = 446;
},
{
layerId = "6AEB73DF-AB25-40A2-91CF-25D7B6E2A2D2";
shapes = (
{
ref = b;
}
);
width = 463;
},
{
layerId = m01;
shapes = (
{
ref = b;
}
);
width = 600;
}
);
unicode = 66;
},
{
glyphname = C;
lastChange = "2025-09-30 06:35:50 +0000";
layers = (
{
background = {
shapes = (
{
ref = _A;
}
);
};
layerId = m003;
shapes = (
{
attr = {
identifier = ID0x108b4b810;
lineCapEnd = "4";
lineCapStart = "4";
};
closed = 0;
nodes = (
(391,400,l),
(267,700,l),
(184,700,l),
(-108,0,l),
(555,0,l),
(431,301,l)
);
}
);
width = 446;
},
{
layerId = "6AEB73DF-AB25-40A2-91CF-25D7B6E2A2D2";
shapes = (
{
ref = c;
}
);
width = 463;
},
{
layerId = m01;
shapes = (
{
ref = c;
}
);
width = 263;
}
);
unicode = 67;
},
{
glyphname = D;
lastChange = "2025-09-30 06:35:50 +0000";
layers = (
{
background = {
shapes = (
{
ref = _B;
}
);
};
layerId = m003;
shapes = (
{
attr = {
identifier = ID0x108b49fd0;
lineCapEnd = "4";
lineCapStart = "4";
};
closed = 0;
nodes = (
(596,800,l),
(267,0,l)
);
},
{
attr = {
identifier = ID0x108b49fd0;
lineCapEnd = "4";
lineCapStart = "4";
};
closed = 0;
nodes = (
(349,200,l),
(184,0,l),
(-107,697,l),
(512,600,l)
);
}
);
width = 446;
},
{
layerId = "6AEB73DF-AB25-40A2-91CF-25D7B6E2A2D2";
shapes = (
{
ref = d;
}
);
width = 463;
},
{
layerId = m01;
shapes = (
{
ref = d;
}
);
width = 600;
}
);
unicode = 68;
},
{
glyphname = E;
lastChange = "2025-09-30 06:35:50 +0000";
layers = (
{
background = {
shapes = (
{
ref = _A;
}
);
};
layerId = m003;
shapes = (
{
attr = {
identifier = ID0x110eeee50;
lineCapEnd = "4";
lineCapStart = "4";
};
closed = 0;
nodes = (
(553,0,l),
(-108,0,l),
(183,700,l),
(266,700,l),
(431,300,l),
(-24,200,l)
);
}
);
width = 446;
},
{
layerId = "6AEB73DF-AB25-40A2-91CF-25D7B6E2A2D2";
shapes = (
{
ref = e;
}
);
width = 463;
},
{
layerId = m01;
shapes = (
{
ref = e;
}
);
width = 263;
}
);
unicode = 69;
},
{
glyphname = F;
lastChange = "2025-09-30 06:35:50 +0000";
layers = (
{
background = {
shapes = (
{
ref = _B;
}
);
};
layerId = m003;
shapes = (
{
attr = {
identifier = ID0x132f6c2b0;
lineCapEnd = "4";
lineCapStart = "4";
};
closed = 0;
nodes = (
(391,299,l),
(18,199,l)
);
},
{
attr = {
identifier = ID0x132f6c2b0;
lineCapEnd = "4";
lineCapStart = "4";
};
closed = 0;
nodes = (
(226,-101,l),
(-150,800,l),
(596,800,l),
(431,399,l)
);
}
);
width = 446;
},
{
layerId = "6AEB73DF-AB25-40A2-91CF-25D7B6E2A2D2";
shapes = (
{
ref = f;
}
);
width = 463;
},
{
layerId = m01;
shapes = (
{
ref = f;
}
);
width = 263;
}
);
unicode = 70;
},
{
glyphname = G;
lastChange = "2025-09-30 06:35:50 +0000";
layers = (
{
background = {
shapes = (
{
ref = _A;
}
);
};
layerId = m003;
shapes = (
{
attr = {
identifier = ID0x132fd9fb0;
lineCapEnd = "4";
lineCapStart = "4";
};
closed = 0;
nodes = (
(431,300,l),
(58,396,l),
(143,600,l),
(307,600,l)
);
},
{
closed = 0;
nodes = (
(267,700,l),
(596,-101,l),
(-150,-100,l),
(-25,199,l),
(273,199,l)
);
}
);
width = 446;
},
{
layerId = "6AEB73DF-AB25-40A2-91CF-25D7B6E2A2D2";
shapes = (
{
ref = g;
}
);
width = 535;
},
{
layerId = m01;
shapes = (
{
ref = g;
}
);
width = 263;
}
);
unicode = 71;
},
{
glyphname = H;
lastChange = "2025-09-30 06:35:50 +0000";
layers = (
{
background = {
shapes = (
{
ref = _B;
}
);
};
layerId = m003;
shapes = (
{
attr = {
identifier = ID0x110909e70;
lineCapEnd = "4";
lineCapStart = "4";
};
closed = 0;
nodes = (
(-24,500,l),
(555,700,l),
(268,0,l)
);
},
{
attr = {
identifier = ID0x110909e70;
lineCapEnd = "4";
lineCapStart = "4";
};
closed = 0;
nodes = (
(184,0,l),
(-150,800,l)
);
}
);
width = 446;
},
{
layerId = "6AEB73DF-AB25-40A2-91CF-25D7B6E2A2D2";
shapes = (
{
ref = h;
}
);
width = 463;
},
{
layerId = m01;
shapes = (
{
ref = h;
}
);
width = 600;
}
);
unicode = 72;
},
{
glyphname = K;
lastChange = "2025-09-30 06:35:50 +0000";
layers = (
{
background = {
shapes = (
{
ref = _A;
}
);
};
layerId = m003;
shapes = (
{
attr = {
identifier = ID0x132fd0630;
lineCapEnd = "4";
lineCapStart = "4";
};
closed = 0;
nodes = (
(-107,0,l),
(225,800,l)
);
},
{
attr = {
identifier = ID0x132fd0630;
lineCapEnd = "4";
lineCapStart = "4";
};
closed = 0;
nodes = (
(309,600,l),
(430,300,l),
(18,300,l)
);
},
{
attr = {
identifier = ID0x132fd0630;
lineCapEnd = "4";
lineCapStart = "4";
};
closed = 0;
nodes = (
(118,300,l),
(514,100,l),
(556,0,l)
);
}
);
width = 446;
},
{
layerId = "6AEB73DF-AB25-40A2-91CF-25D7B6E2A2D2";
shapes = (
{
ref = k;
}
);
width = 463;
},
{
layerId = m01;
shapes = (
{
ref = k;
}
);
width = 600;
}
);
unicode = 75;
},
{
glyphname = L;
lastChange = "2025-09-30 06:35:50 +0000";
layers = (
{
background = {
shapes = (
{
ref = _B;
}
);
};
guides = (
{
angle = -67.6247;
pos = (65,400);
}
);
layerId = m003;
shapes = (
{
attr = {
identifier = ID0x137e5cda0;
lineCapEnd = "4";
lineCapStart = "4";
};
closed = 0;
nodes = (
(-149,800,l),
(183,0,l),
(268,0,l),
(432,400,l)
);
}
);
width = 446;
},
{
layerId = "6AEB73DF-AB25-40A2-91CF-25D7B6E2A2D2";
shapes = (
{
ref = l;
}
);
width = 466;
},
{
layerId = m01;
shapes = (
{
ref = l;
}
);
width = 264;
}
);
unicode = 76;
},
{
glyphname = M;
lastChange = "2025-09-30 06:35:50 +0000";
layers = (
{
background = {
shapes = (
{
ref = _A;
}
);
};
layerId = m003;
shapes = (
{
attr = {
identifier = ID0x121836840;
lineCapEnd = "4";
lineCapStart = "4";
};
closed = 0;
nodes = (
(183,700,l),
(-107,0,l)
);
},
{
attr = {
identifier = ID0x121836840;
lineCapEnd = "4";
lineCapStart = "4";
};
closed = 0;
nodes = (
(183,0,l),
(308,600,l),
(100,500,l)
);
},
{
attr = {
identifier = ID0x121836840;
lineCapEnd = "4";
lineCapStart = "4";
};
closed = 0;
nodes = (
(555,0,l),
(391,400,l),
(245,299,l)
);
}
);
width = 446;
},
{
layerId = "6AEB73DF-AB25-40A2-91CF-25D7B6E2A2D2";
shapes = (
{
ref = m;
}
);
width = 463;
},
{
layerId = m01;
shapes = (
{
ref = m;
}
);
width = 600;
}
);
unicode = 77;
},
{
glyphname = N;
lastChange = "2025-09-30 06:35:50 +0000";
layers = (
{
background = {
shapes = (
{
ref = _B;
}
);
};
layerId = m003;
shapes = (
{
attr = {
identifier = ID0x1218556f0;
lineCapEnd = "4";
lineCapStart = "4";
};
closed = 0;
nodes = (
(-108,700,l),
(184,0,l)
);
},
{
attr = {
identifier = ID0x1218556f0;
lineCapEnd = "4";
lineCapStart = "4";
};
closed = 0;
nodes = (
(-66,600,l),
(555,700,l),
(267,0,l)
);
}
);
width = 446;
},
{
layerId = "6AEB73DF-AB25-40A2-91CF-25D7B6E2A2D2";
shapes = (
{
ref = n;
}
);
width = 467;
},
{
layerId = m01;
shapes = (
{
ref = n;
}
);
width = 600;
}
);
unicode = 78;
},
{
glyphname = O;
lastChange = "2025-09-30 06:35:50 +0000";
layers = (
{
background = {
shapes = (
{
ref = _A;
}
);
};
layerId = m003;
shapes = (
{
attr = {
identifier = ID0x110eb3d40;
lineCapEnd = "4";
lineCapStart = "4";
};
closed = 0;
nodes = (
(267,700,l),
(185,700,l),
(-108,0,l),
(555,0,l),
(267,700,l)
);
},
{
attr = {
identifier = ID0x110eb3d40;
};
closed = 0;
nodes = (
(431,300,l),
(100,499,l)
);
}
);
width = 446;
},
{
layerId = "6AEB73DF-AB25-40A2-91CF-25D7B6E2A2D2";
shapes = (
{
ref = o;
}
);
width = 546;
},
{
layerId = m01;
shapes = (
{
ref = o;
}
);
width = 600;
}
);
unicode = 79;
},
{
glyphname = P;
lastChange = "2025-09-30 06:35:50 +0000";
layers = (
{
background = {
shapes = (
{
ref = _B;
}
);
};
layerId = m003;
shapes = (
{
attr = {
identifier = ID0x132febce0;
lineCapEnd = "4";
lineCapStart = "4";
};
closed = 0;
nodes = (
(-67,599,l),
(555,700,l),
(308,100,l),
(103,200,l)
);
},
{
attr = {
identifier = ID0x132febce0;
lineCapEnd = "4";
lineCapStart = "4";
};
closed = 0;
nodes = (
(227,-101,l),
(-109,700,l)
);
}
);
width = 446;
},
{
layerId = "6AEB73DF-AB25-40A2-91CF-25D7B6E2A2D2";
shapes = (
{
ref = p;
}
);
width = 466;
},
{
layerId = m01;
shapes = (
{
ref = p;
}
);
width = 600;
}
);
unicode = 80;
},
{
glyphname = Q;
lastChange = "2025-09-30 06:35:50 +0000";
layers = (
{
background = {
shapes = (
{
ref = _A;
}
);
};
layerId = m003;
shapes = (
{
attr = {
identifier = ID0x16f93dab0;
lineCapEnd = "4";
lineCapStart = "4";
};
closed = 0;
nodes = (
(469,200,l),
(-68,100,l),
(184,700,l),
(266,700,l),
(596,-101,l)
);
},
{
attr = {
lineCapEnd = "4";
lineCapStart = "4";
};
closed = 0;
nodes = (
(184,1,l),
(554,0,l)
);
}
);
width = 446;
},
{
layerId = "6AEB73DF-AB25-40A2-91CF-25D7B6E2A2D2";
shapes = (
{
ref = q;
}
);
width = 463;
},
{
layerId = m01;
shapes = (
{
ref = q;
}
);
width = 600;
}
);
unicode = 81;
},
{
glyphname = R;
lastChange = "2025-09-30 06:35:50 +0000";
layers = (
{
background = {
shapes = (
{
ref = _B;
}
);
};
layerId = m003;
shapes = (
{
attr = {
identifier = ID0x132febce0;
lineCapEnd = "4";
lineCapStart = "4";
};
closed = 0;
nodes = (
(-24,500,l),
(555,699,l),
(391,300,l)
);
},
{
attr = {
identifier = ID0x132febce0;
lineCapEnd = "4";
lineCapStart = "4";
};
closed = 0;
nodes = (
(184,0,l),
(-108,700,l)
);
}
);
width = 446;
},
{
layerId = "6AEB73DF-AB25-40A2-91CF-25D7B6E2A2D2";
shapes = (
{
ref = r;
}
);
width = 517;
},
{
layerId = m01;
shapes = (
{
ref = r;
}
);
width = 600;
}
);
unicode = 82;
},
{
glyphname = S;
lastChange = "2025-09-30 06:35:50 +0000";
layers = (
{
background = {
shapes = (
{
ref = _A;
}
);
};
layerId = m003;
shapes = (
{
attr = {
identifier = ID0x110e69b10;
lineCapEnd = "4";
lineCapStart = "4";
};
closed = 0;
nodes = (
(390,399,l),
(267,700,l),
(183,700,l),
(59,400,l),
(473,200,l),
(555,0,l),
(-108,0,l),
(-24,200,l)
);
}
);
width = 446;
},
{
layerId = "6AEB73DF-AB25-40A2-91CF-25D7B6E2A2D2";
shapes = (
{
ref = s;
}
);
width = 463;
},
{
layerId = m01;
shapes = (
{
ref = s;
}
);
width = 263;
}
);
unicode = 83;
},
{
glyphname = T;
lastChange = "2025-09-30 06:35:50 +0000";
layers = (
{
background = {
shapes = (
{
ref = _B;
}
);
};
layerId = m003;
shapes = (
{
attr = {
identifier = ID0x132f3bd10;
lineCapEnd = "4";
lineCapStart = "4";
strokeHeight = 50;
};
closed = 0;
nodes = (
(-150,800,l),
(185,0,l),
(267,0,l),
(473,500,l)
);
},
{
attr = {
identifier = ID0x132f3bd10;
lineCapEnd = "4";
lineCapStart = "4";
strokeHeight = 50;
};
closed = 0;
nodes = (
(555,700,l),
(-107,700,l)
);
}
);
width = 446;
},
{
layerId = "6AEB73DF-AB25-40A2-91CF-25D7B6E2A2D2";
shapes = (
{
ref = t;
}
);
width = 463;
},
{
layerId = m01;
shapes = (
{
ref = t;
}
);
width = 600;
}
);
unicode = 84;
},
{
glyphname = U;
lastChange = "2025-09-30 06:35:50 +0000";
layers = (
{
background = {
shapes = (
{
ref = _A;
}
);
};
layerId = m003;
shapes = (
{
attr = {
identifier = ID0x1218556f0;
lineCapEnd = "4";
lineCapStart = "4";
};
closed = 0;
nodes = (
(268,700,l),
(555,0,l)
);
},
{
attr = {
identifier = ID0x1218556f0;
lineCapEnd = "4";
lineCapStart = "4";
};
closed = 0;
nodes = (
(184,700,l),
(-108,0,l),
(515,100,l)
);
}
);
width = 446;
},
{
layerId = "6AEB73DF-AB25-40A2-91CF-25D7B6E2A2D2";
shapes = (
{
ref = u;
}
);
width = 463;
},
{
layerId = m01;
shapes = (
{
ref = u;
}
);
width = 600;
}
);
unicode = 85;
},
{
glyphname = V;
lastChange = "2025-09-30 06:35:50 +0000";
layers = (
{
background = {
shapes = (
{
ref = _B;
}
);
};
layerId = m003;
shapes = (
{
attr = {
identifier = ID0x16f9970b0;
lineCapEnd = "4";
lineCapStart = "4";
};
closed = 0;
nodes = (
(-108,700,l),
(184,0,l),
(267,0,l),
(555,700,l)
);
}
);
width = 446;
},
{
layerId = "6AEB73DF-AB25-40A2-91CF-25D7B6E2A2D2";
shapes = (
{
ref = v;
}
);
width = 465;
},
{
layerId = m01;
shapes = (
{
ref = v;
}
);
width = 600;
}
);
unicode = 86;
},
{
glyphname = W;
lastChange = "2025-09-30 06:35:50 +0000";
layers = (
{
background = {
shapes = (
{
ref = _A;
}
);
};
layerId = m003;
shapes = (
{
closed = 0;
nodes = (
(183,700,l),
(-110,0,l),
(382,400,l),
(225,0,l),
(554,0,l),
(472,200,l)
);
}
);
width = 446;
},
{
layerId = "6AEB73DF-AB25-40A2-91CF-25D7B6E2A2D2";
shapes = (
{
closed = 0;
nodes = (
(229,800,l),
(-100,0,l),
(392,400,l),
(226,0,l),
(561,0,l)
);
}
);
width = 600;
},
{
layerId = m01;
width = 600;
}
);
unicode = 87;
},
{
glyphname = X;
lastChange = "2025-09-30 06:35:50 +0000";
layers = (
{
background = {
shapes = (
{
ref = _B;
}
);
};
layerId = m003;
shapes = (
{
attr = {
identifier = ID0x110e8d590;
lineCapEnd = "4";
lineCapStart = "4";
};
closed = 0;
nodes = (
(309,100,l),
(17,400,l),
(-107,700,l)
);
},
{
attr = {
identifier = ID0x110e8d590;
lineCapEnd = "4";
lineCapStart = "4";
};
closed = 0;
nodes = (
(185,0,l),
(104,189,l),
(557,700,l)
);
}
);
width = 446;
},
{
layerId = "6AEB73DF-AB25-40A2-91CF-25D7B6E2A2D2";
shapes = (
{
ref = x;
}
);
width = 464;
},
{
layerId = m01;
shapes = (
{
ref = x;
}
);
width = 600;
}
);
unicode = 88;
},
{
glyphname = Y;
lastChange = "2025-09-30 06:35:50 +0000";
layers = (
{
background = {
shapes = (
{
ref = _A;
}
);
};
guides = (
{
angle = 67.4616;
pos = (111,400);
}
);
layerId = m003;
shapes = (
{
attr = {
identifier = ID0x137eb46c0;
lineCapEnd = "4";
lineCapStart = "4";
};
closed = 0;
nodes = (
(266,700,l),
(595,-101,l),
(-149,-101,l)
);
},
{
attr = {
lineCapEnd = "4";
};
closed = 0;
nodes = (
(472,199,l),
(-66,99,l),
(143,600,l)
);
}
);
width = 446;
},
{
layerId = "6AEB73DF-AB25-40A2-91CF-25D7B6E2A2D2";
shapes = (
{
ref = y;
}
);
width = 463;
},
{
layerId = m01;
shapes = (
{
ref = y;
}
);
width = 600;
}
);
unicode = 89;
},
{
glyphname = Z;
lastChange = "2025-09-30 06:35:50 +0000";
layers = (
{
background = {
shapes = (
{
ref = _B;
}
);
};
layerId = m003;
shapes = (
{
attr = {
identifier = ID0x12187ba20;
lineCapEnd = "4";
lineCapStart = "4";
};
closed = 0;
nodes = (
(268,0,l),
(184,0,l),
(555,700,l)
);
},
{
attr = {
identifier = ID0x12187ba20;
lineCapEnd = "4";
lineCapStart = "4";
};
closed = 0;
nodes = (
(503,600,l),
(-108,700,l),
(60,299,l)
);
}
);
width = 446;
},
{
layerId = "6AEB73DF-AB25-40A2-91CF-25D7B6E2A2D2";
shapes = (
{
ref = z;
}
);
width = 464;
},
{
layerId = m01;
shapes = (
{
ref = z;
}
);
width = 600;
}
);
unicode = 90;
},
{
color = 0;
glyphname = a;
lastChange = "2025-09-30 06:35:50 +0000";
layers = (
{
background = {
shapes = (
{
ref = _B;
}
);
};
layerId = m003;
shapes = (
{
attr = {
lineCapEnd = "4";
lineCapStart = "4";
};
closed = 0;
nodes = (
(-104,700,l),
(556,700,l),
(269,0,l)
);
},
{
attr = {
lineCapEnd = "4";
lineCapStart = "4";
};
closed = 0;
nodes = (
(352,200,l),
(143,100,l),
(-66,600,l),
(474,500,l)
);
}
);
width = 446;
},
{
background = {
shapes = (
{
closed = 1;
nodes = (
(-100,800,l),
(229,0,l),
(563,800,l)
);
}
);
};
layerId = "6AEB73DF-AB25-40A2-91CF-25D7B6E2A2D2";
shapes = (
{
closed = 1;
nodes = (
(574,767,l),
(602,725,l),
(-67,725,l),
(-67,720,l),
(500,593,l),
(251,717,l),
(251,0,l),
(256,0,l)
);
},
{
closed = 1;
nodes = (
(-103,645,l),
(-76,677,l),
(195,18,l),
(143,32,l),
(312,168,l),
(312,200,l),
(125,200,l),
(130,194,l),
(130,592,l),
(127,591,l),
(302,323,l),
(437,526,l)
);
}
);
width = 463;
},
{
layerId = m01;
shapes = (
{
closed = 1;
nodes = (
(348,12,l),
(363,0,l),
(134,780,l),
(26,421,l)
);
},
{
closed = 1;
nodes = (
(348,12,l),
(-34,221,l),
(-100,0,l),
(363,0,l)
);
},
{
closed = 1;
nodes = (
(-29,211,l),
(181,297,l),
(173,304,l),
(-34,221,l)
);
}
);
width = 263;
}
);
unicode = 97;
},
{
glyphname = b;
lastChange = "2025-09-30 06:35:50 +0000";
layers = (
{
background = {
shapes = (
{
ref = _A;
}
);
};
layerId = m003;
shapes = (
{
attr = {
lineCapEnd = "4";
lineCapStart = "4";
};
closed = 0;
nodes = (
(226,800,l),
(-108,0,l),
(555,0,l),
(309,600,l),
(101,500,l)
);
}
);
width = 446;
},
{
background = {
shapes = (
{
closed = 1;
nodes = (
(229,800,l),
(-100,0,l),
(563,0,l)
);
}
);
};
layerId = "6AEB73DF-AB25-40A2-91CF-25D7B6E2A2D2";
shapes = (
{
attr = {
lineCapEnd = 4;
lineCapStart = 4;
strokeHeight = 50;
strokeWidth = 50;
};
closed = 0;
nodes = (
(228,797,l),
(-100,0,l)
);
},
{
attr = {
lineCapEnd = 4;
lineCapStart = 4;
strokeHeight = 50;
strokeWidth = 50;
};
closed = 0;
nodes = (
(-57,100,l),
(563,0,l),
(313,600,l),
(106,500,l)
);
}
);
width = 463;
},
{
layerId = m01;
width = 600;
}
);
unicode = 98;
},
{
glyphname = c;
lastChange = "2025-09-30 06:35:50 +0000";
layers = (
{
background = {
shapes = (
{
ref = _B;
}
);
};
layerId = m003;
shapes = (
{
attr = {
lineCapEnd = "4";
lineCapStart = "4";
};
closed = 0;
nodes = (
(472,499,l),
(555,700,l),
(-109,700,l),
(184,0,l),
(266,0,l),
(391,300,l)
);
}
);
width = 446;
},
{
background = {
shapes = (
{
attr = {
lineCapEnd = "4";
lineCapStart = "4";
strokeHeight = 50;
strokeWidth = 50;
};
closed = 0;
nodes = (
(438,499,l),
(522,700,l),
(-58,700,l),
(189,100,l),
(271,100,l),
(396,400,l)
);
}
);
};
layerId = "6AEB73DF-AB25-40A2-91CF-25D7B6E2A2D2";
shapes = (
{
closed = 1;
nodes = (
(311,134,l),
(316,142,l),
(199,80,l),
(206,76,l),
(206,717,l),
(44,475,l),
(516,720,l),
(419,700,l),
(419,400,l),
(423,400,l),
(577,766,l),
(605,725,l),
(-140,725,l),
(-112,767,l),
(189,33,l),
(127,75,l),
(333,75,l),
(271,33,l),
(382,300,l),
(251,300,l)
);
}
);
width = 463;
},
{
layerId = m01;
shapes = (
{
closed = 1;
nodes = (
(363,0,l),
(297,221,l),
(-91,12,l),
(-100,0,l)
);
},
{
closed = 1;
nodes = (
(-90,0,l),
(42,449,l),
(30,421,l),
(290,245,l),
(129,780,l),
(-100,0,l)
);
}
);
width = 263;
}
);
unicode = 99;
},
{
glyphname = d;
lastChange = "2025-09-30 06:35:50 +0000";
layers = (
{
background = {
shapes = (
{
ref = _A;
}
);
};
layerId = m003;
shapes = (
{
attr = {
lineCapEnd = "4";
lineCapStart = "4";
};
closed = 0;
nodes = (
(554,0,l),
(226,797,l)
);
},
{
attr = {
lineCapEnd = "4";
lineCapStart = "4";
};
closed = 0;
nodes = (
(348,500,l),
(141,600,l),
(-109,0,l),
(513,100,l)
);
}
);
width = 446;
},
{
background = {
shapes = (
{
closed = 1;
nodes = (
(229,800,l),
(-100,0,l),
(563,0,l)
);
}
);
};
guides = (
{
angle = 67.3648;
pos = (11,265);
}
);
layerId = "6AEB73DF-AB25-40A2-91CF-25D7B6E2A2D2";
shapes = (
{
attr = {
lineCapEnd = 4;
lineCapStart = 4;
strokeHeight = 50;
strokeWidth = 50;
};
closed = 0;
nodes = (
(563,0,l),
(235,797,l)
);
},
{
attr = {
lineCapEnd = 4;
lineCapStart = 4;
strokeHeight = 50;
strokeWidth = 50;
};
closed = 0;
nodes = (
(357,500,l),
(150,600,l),
(-100,0,l),
(518,100,l)
);
}
);
width = 463;
},
{
layerId = m01;
width = 600;
}
);
unicode = 100;
},
{
glyphname = e;
lastChange = "2025-09-30 06:35:50 +0000";
layers = (
{
background = {
shapes = (
{
ref = _B;
}
);
};
layerId = m003;
shapes = (
{
attr = {
identifier = ID0x1017302a0;
lineCapEnd = "4";
lineCapStart = "4";
};
closed = 0;
nodes = (
(-25,500,l),
(432,400,l),
(554,700,l),
(-107,700,l),
(183,0,l),
(268,0,l),
(391,299,l)
);
}
);
width = 446;
},
{
background = {
shapes = (
{
attr = {
identifier = ID0x1017302a0;
lineCapEnd = 4;
lineCapStart = 4;
strokeHeight = 50;
strokeWidth = 50;
};
closed = 0;
nodes = (
(24,500,l),
(398,400,l),
(522,700,l),
(-58,700,l),
(189,100,l),
(271,100,l),
(357,300,l)
);
}
);
};
layerId = "6AEB73DF-AB25-40A2-91CF-25D7B6E2A2D2";
shapes = (
{
attr = {
identifier = ID0x1017302a0;
};
closed = 1;
nodes = (
(313,149,l),
(320,155,l),
(193,76,l),
(203,76,l),
(203,725,l),
(192,720,l),
(384,456,l),
(316,717,l),
(316,366,l),
(326,400,l),
(152,400,l),
(126,256,l),
(456,444,l),
(396,328,l),
(559,725,l),
(-95,725,l),
(189,33,l),
(127,75,l),
(332,75,l),
(269,34,l),
(384,300,l),
(230,300,l)
);
}
);
width = 463;
},
{
background = {
shapes = (
{
closed = 1;
nodes = (
(103,253,l),
(237,420,l),
(234,431,l),
(97,260,l)
);
},
{
closed = 1;
nodes = (
(237,420,l),
(129,780,l),
(23,420,l)
);
},
{
closed = 1;
nodes = (
(23,420,l),
(-100,0,l),
(363,0,l)
);
}
);
};
layerId = m01;
shapes = (
{
closed = 1;
nodes = (
(-17,247,l),
(132,757,l),
(129,780,l),
(-100,0,l)
);
},
{
closed = 1;
nodes = (
(363,0,l),
(-25,252,l),
(-100,0,l)
);
},
{
closed = 1;
nodes = (
(291,245,l),
(129,780,l),
(23,421,l),
(280,255,l),
(-24,256,l),
(-27,245,l)
);
}
);
width = 263;
}
);
unicode = 101;
},
{
glyphname = f;
lastChange = "2025-09-30 06:35:50 +0000";
layers = (
{
background = {
shapes = (
{
ref = _A;
}
);
};
guides = (
{
pos = (-74,71);
}
);
layerId = m003;
shapes = (
{
attr = {
lineCapEnd = "4";
lineCapStart = "4";
};
closed = 0;
nodes = (
(430,300,l),
(-125,177,l)
);
},
{
attr = {
lineCapEnd = "4";
lineCapStart = "4";
};
closed = 0;
nodes = (
(349,500,l),
(226,801,l),
(-150,-101,l)
);
}
);
width = 446;
},
{
background = {
shapes = (
{
closed = 1;
nodes = (
(229,800,l),
(-100,0,l),
(563,0,l)
);
}
);
};
guides = (
{
pos = (-74,71);
}
);
layerId = "6AEB73DF-AB25-40A2-91CF-25D7B6E2A2D2";
shapes = (
{
attr = {
lineCapEnd = 4;
lineCapStart = 4;
strokeHeight = 50;
strokeWidth = 50;
};
closed = 0;
nodes = (
(398,400,l),
(-61,300,l)
);
},
{
attr = {
lineCapEnd = 4;
lineCapStart = 4;
strokeHeight = 50;
strokeWidth = 50;
};
closed = 0;
nodes = (
(343,530,l),
(229,797,l),
(-99,0,l)
);
}
);
width = 463;
},
{
background = {
shapes = (
{
closed = 1;
nodes = (
(250,380,l),
(129,780,l),
(-100,0,l),
(169,0,l),
(11,379,l),
(289,251,l)
);
},
{
closed = 1;
nodes = (
(51,220,l),
(51,209,l),
(301,209,l),
(297,220,l)
);
}
);
};
layerId = m01;
shapes = (
{
closed = 1;
nodes = (
(251,379,l),
(129,780,l),
(-100,0,l),
(169,0,l),
(11,379,l)
);
},
{
closed = 1;
nodes = (
(51,220,l),
(51,209,l),
(301,209,l),
(297,220,l)
);
}
);
width = 263;
}
);
unicode = 102;
},
{
glyphname = g;
lastChange = "2025-09-30 06:35:50 +0000";
layers = (
{
background = {
shapes = (
{
ref = _B;
}
);
};
layerId = m003;
shapes = (
{
attr = {
lineCapEnd = "4";
lineCapStart = "4";
};
closed = 0;
nodes = (
(141,100,l),
(226,-100,l),
(554,697,l)
);
},
{
attr = {
lineCapEnd = "4";
lineCapStart = "4";
};
closed = 0;
nodes = (
(528,634,l),
(-108,700,l),
(100,200,l),
(388,300,l)
);
}
);
width = 446;
},
{
background = {
shapes = (
{
closed = 1;
nodes = (
(-51,800,l),
(278,0,l),
(612,800,l)
);
}
);
};
layerId = "6AEB73DF-AB25-40A2-91CF-25D7B6E2A2D2";
shapes = (
{
attr = {
lineCapEnd = 4;
lineCapStart = 4;
strokeHeight = 50;
strokeWidth = 50;
};
closed = 0;
nodes = (
(194,200,l),
(280,0,l),
(608,797,l)
);
},
{
attr = {
lineCapEnd = 4;
lineCapStart = 4;
strokeHeight = 50;
strokeWidth = 50;
};
closed = 0;
nodes = (
(582,734,l),
(-55,797,l),
(154,300,l),
(442,400,l)
);
}
);
width = 535;
},
{
layerId = m01;
shapes = (
{
closed = 1;
nodes = (
(363,0,l),
(297,221,l),
(-91,12,l),
(-100,0,l)
);
},
{
closed = 1;
nodes = (
(-90,0,l),
(42,449,l),
(30,421,l),
(290,245,l),
(129,780,l),
(-100,0,l)
);
},
{
closed = 1;
nodes = (
(53,221,l),
(50,210,l),
(300,210,l),
(297,221,l)
);
}
);
width = 263;
}
);
unicode = 103;
},
{
glyphname = h;
lastChange = "2025-09-30 06:35:50 +0000";
layers = (
{
background = {
shapes = (
{
ref = _A;
}
);
};
layerId = m003;
shapes = (
{
attr = {
lineCapEnd = "4";
lineCapStart = "4";
};
closed = 0;
nodes = (
(224,797,l),
(-108,0,l)
);
},
{
attr = {
lineCapEnd = "4";
lineCapStart = "4";
};
closed = 0;
nodes = (
(555,0,l),
(308,600,l),
(98,500,l)
);
}
);
width = 446;
},
{
background = {
shapes = (
{
closed = 1;
nodes = (
(229,800,l),
(-100,0,l),
(563,0,l)
);
}
);
};
layerId = "6AEB73DF-AB25-40A2-91CF-25D7B6E2A2D2";
shapes = (
{
attr = {
lineCapEnd = 4;
lineCapStart = 4;
strokeHeight = 50;
strokeWidth = 50;
};
closed = 0;
nodes = (
(228,797,l),
(-100,0,l)
);
},
{
attr = {
lineCapEnd = 4;
lineCapStart = 4;
strokeHeight = 50;
strokeWidth = 50;
};
closed = 0;
nodes = (
(563,0,l),
(313,600,l),
(106,500,l)
);
}
);
width = 463;
},
{
layerId = m01;
width = 600;
}
);
unicode = 104;
},
{
color = 0;
glyphname = i;
lastChange = "2025-09-30 06:35:50 +0000";
layers = (
{
background = {
shapes = (
{
ref = _B;
}
);
};
layerId = m003;
shapes = (
{
ref = idotless;
},
{
pos = (-107,0);
ref = dotaccentcomb;
}
);
width = 446;
},
{
background = {
shapes = (
{
closed = 1;
nodes = (
(-99,800,l),
(230,0,l),
(564,800,l)
);
}
);
};
layerId = "6AEB73DF-AB25-40A2-91CF-25D7B6E2A2D2";
shapes = (
{
ref = idotless;
}
);
width = 463;
},
{
background = {
shapes = (
{
closed = 1;
nodes = (
(-99,0,l),
(364,0,l),
(130,780,l)
);
}
);
};
layerId = m01;
shapes = (
{
closed = 1;
nodes = (
(63,552,l),
(-99,0,l),
(-84,12,l),
(238,421,l)
);
},
{
closed = 1;
nodes = (
(364,0,l),
(298,221,l),
(-84,12,l),
(-99,0,l)
);
},
{
ref = idotless;
}
);
width = 264;
}
);
unicode = 105;
},
{
glyphname = idotless;
lastChange = "2025-09-30 06:35:50 +0000";
layers = (
{
anchors = (
{
name = bottom;
pos = (223,0);
},
{
name = ogonek;
pos = (392,0);
},
{
name = top;
pos = (-107,700);
}
);
background = {
shapes = (
{
ref = _B;
}
);
};
layerId = m003;
shapes = (
{
attr = {
lineCapEnd = "4";
lineCapStart = "4";
};
closed = 0;
nodes = (
(-67,600,l),
(185,0,l),
(267,0,l),
(392,300,l)
);
}
);
width = 446;
},
{
anchors = (
{
name = bottom;
pos = (232,0);
},
{
name = ogonek;
pos = (422,0);
},
{
name = top;
pos = (232,0);
}
);
layerId = "6AEB73DF-AB25-40A2-91CF-25D7B6E2A2D2";
shapes = (
{
attr = {
lineCapEnd = 4;
lineCapStart = 4;
strokeHeight = 50;
strokeWidth = 50;
};
closed = 0;
nodes = (
(-59,700,l),
(188,100,l),
(270,100,l),
(395,400,l)
);
}
);
width = 463;
},
{
anchors = (
{
name = bottom;
pos = (132,0);
},
{
name = ogonek;
pos = (198,0);
},
{
name = top;
pos = (132,0);
}
);
layerId = m01;
shapes = (
{
closed = 1;
nodes = (
(198,555,l),
(130,780,l),
(64,555,l)
);
}
);
width = 264;
}
);
unicode = 305;
},
{
glyphname = j;
lastChange = "2025-09-30 06:35:50 +0000";
layers = (
{
background = {
shapes = (
{
ref = _A;
}
);
};
layerId = m003;
shapes = (
{
ref = jdotless;
},
{
pos = (184,0);
ref = dotaccentcomb;
}
);
width = 446;
},
{
background = {
shapes = (
{
closed = 1;
nodes = (
(390,800,l),
(61,0,l),
(724,0,l)
);
}
);
};
layerId = "6AEB73DF-AB25-40A2-91CF-25D7B6E2A2D2";
shapes = (
{
ref = jdotless;
}
);
width = 463;
},
{
layerId = m01;
shapes = (
{
ref = jdotless;
}
);
width = 264;
}
);
unicode = 106;
},
{
glyphname = jdotless;
lastChange = "2025-09-30 06:35:50 +0000";
layers = (
{
anchors = (
{
name = top;
pos = (184,700);
}
);
guides = (
{
angle = 112.4048;
pos = (452,250);
}
);
layerId = m003;
shapes = (
{
attr = {
identifier = ID0x13581ddb0;
lineCapEnd = "4";
lineCapStart = "4";
};
closed = 0;
nodes = (
(231,299,l),
(16,299,l),
(-149,-101,l),
(596,-101,l),
(307,600,l)
);
}
);
width = 446;
},
{
layerId = "6AEB73DF-AB25-40A2-91CF-25D7B6E2A2D2";
shapes = (
{
attr = {
identifier = ID0x13581ddb0;
lineCapEnd = 4;
lineCapStart = 4;
strokeHeight = 50;
strokeWidth = 50;
};
closed = 0;
nodes = (
(205,500,l),
(105,500,l),
(-60,100,l),
(520,100,l),
(273,700,l)
);
}
);
width = 463;
},
{
layerId = m01;
shapes = (
{
pos = (264,0);
ref = i;
scale = (-1,1);
}
);
width = 264;
}
);
unicode = 567;
},
{
glyphname = k;
lastChange = "2025-09-30 06:35:50 +0000";
layers = (
{
background = {
shapes = (
{
ref = _B;
}
);
};
layerId = m003;
shapes = (
{
attr = {
lineCapEnd = "4";
lineCapStart = "4";
};
closed = 0;
nodes = (
(184,0,l),
(-149,800,l)
);
},
{
attr = {
lineCapEnd = "4";
lineCapStart = "4";
};
closed = 0;
nodes = (
(309,100,l),
(432,400,l),
(19,400,l)
);
},
{
closed = 0;
nodes = (
(515,600,l),
(121,400,l)
);
}
);
width = 446;
},
{
background = {
shapes = (
{
closed = 1;
nodes = (
(-100,800,l),
(229,0,l),
(563,800,l)
);
}
);
};
layerId = "6AEB73DF-AB25-40A2-91CF-25D7B6E2A2D2";
shapes = (
{
attr = {
lineCapEnd = 4;
lineCapStart = 4;
strokeHeight = 50;
strokeWidth = 50;
};
closed = 0;
nodes = (
(233,0,l),
(-97,800,l)
);
},
{
attr = {
lineCapEnd = 4;
lineCapStart = 4;
strokeHeight = 50;
strokeWidth = 50;
};
closed = 0;
nodes = (
(482,600,l),
(70,400,l),
(400,400,l),
(274,100,l)
);
}
);
width = 463;
},
{
layerId = m01;
width = 600;
}
);
unicode = 107;
},
{
glyphname = l;
lastChange = "2025-09-30 06:35:50 +0000";
layers = (
{
background = {
shapes = (
{
ref = _A;
}
);
};
layerId = m003;
shapes = (
{
attr = {
lineCapEnd = "4";
lineCapStart = "4";
};
closed = 0;
nodes = (
(390,400,l),
(556,0,l),
(-108,0,l),
(225,800,l)
);
}
);
width = 446;
},
{
background = {
shapes = (
{
closed = 1;
nodes = (
(229,800,l),
(-100,0,l),
(563,0,l)
);
}
);
};
layerId = "6AEB73DF-AB25-40A2-91CF-25D7B6E2A2D2";
shapes = (
{
attr = {
lineCapEnd = 4;
lineCapStart = 4;
strokeHeight = 50;
strokeWidth = 50;
};
closed = 0;
nodes = (
(398,400,l),
(566,0,l),
(-97,0,l),
(231,797,l)
);
}
);
width = 466;
},
{
layerId = m01;
shapes = (
{
closed = 1;
nodes = (
(-99,0,l),
(-84,12,l),
(238,421,l),
(130,780,l)
);
},
{
closed = 1;
nodes = (
(364,0,l),
(298,221,l),
(-84,12,l),
(-99,0,l)
);
}
);
width = 264;
}
);
unicode = 108;
},
{
glyphname = m;
lastChange = "2025-09-30 06:35:50 +0000";
layers = (
{
background = {
shapes = (
{
ref = _B;
}
);
};
guides = (
{
angle = 90;
pos = (233,324);
}
);
layerId = m003;
shapes = (
{
attr = {
lineCapEnd = "4";
lineCapStart = "4";
};
closed = 0;
nodes = (
(-108,700,l),
(183,0,l)
);
},
{
attr = {
lineCapEnd = "4";
lineCapStart = "4";
};
closed = 0;
nodes = (
(-65,600,l),
(238,700,l),
(290,54,l)
);
},
{
attr = {
lineCapEnd = "4";
lineCapStart = "4";
};
closed = 0;
nodes = (
(246,600,l),
(555,700,l),
(390,300,l)
);
}
);
width = 446;
},
{
background = {
shapes = (
{
closed = 1;
nodes = (
(-100,800,l),
(229,0,l),
(563,800,l)
);
}
);
};
guides = (
{
angle = 90;
pos = (233,324);
}
);
layerId = "6AEB73DF-AB25-40A2-91CF-25D7B6E2A2D2";
shapes = (
{
attr = {
lineCapEnd = 4;
lineCapStart = 4;
strokeHeight = 50;
strokePos = "0";
strokeWidth = 50;
};
closed = 0;
nodes = (
(-55,700,l),
(233,0,l)
);
},
{
attr = {
lineCapEnd = 4;
lineCapStart = 4;
strokeHeight = 50;
strokeWidth = 50;
};
closed = 0;
nodes = (
(-15,600,l),
(227,700,l),
(275,100,l)
);
},
{
attr = {
lineCapEnd = 4;
lineCapStart = 4;
strokeHeight = 50;
strokeWidth = 50;
};
closed = 0;
nodes = (
(236,600,l),
(525,700,l),
(359,300,l)
);
}
);
width = 463;
},
{
layerId = m01;
width = 600;
}
);
unicode = 109;
},
{
glyphname = n;
lastChange = "2025-09-30 06:35:50 +0000";
layers = (
{
background = {
shapes = (
{
ref = _A;
}
);
};
layerId = m003;
shapes = (
{
attr = {
lineCapEnd = "4";
lineCapStart = "4";
};
closed = 0;
nodes = (
(-108,0,l),
(184,700,l)
);
},
{
attr = {
lineCapEnd = "4";
lineCapStart = "4";
};
closed = 0;
nodes = (
(59,399,l),
(267,700,l),
(555,0,l)
);
}
);
width = 446;
},
{
background = {
shapes = (
{
closed = 1;
nodes = (
(229,800,l),
(-100,0,l),
(563,0,l)
);
}
);
};
layerId = "6AEB73DF-AB25-40A2-91CF-25D7B6E2A2D2";
shapes = (
{
attr = {
lineCapEnd = 4;
lineCapStart = 4;
strokeHeight = 50;
strokeWidth = 50;
};
closed = 0;
nodes = (
(-96,0,l),
(192,700,l)
);
},
{
attr = {
lineCapEnd = 4;
lineCapStart = 4;
strokeHeight = 50;
strokeWidth = 50;
};
closed = 0;
nodes = (
(109,500,l),
(275,700,l),
(567,0,l)
);
}
);
width = 467;
},
{
layerId = m01;
width = 600;
}
);
unicode = 110;
},
{
glyphname = o;
lastChange = "2025-09-30 06:35:50 +0000";
layers = (
{
background = {
shapes = (
{
ref = _B;
}
);
};
layerId = m003;
shapes = (
{
attr = {
identifier = ID0x11680f150;
lineCapEnd = "4";
lineCapStart = "4";
};
closed = 0;
nodes = (
(555,700,l),
(-108,700,l),
(184,0,l),
(268,0,l),
(555,700,l)
);
},
{
closed = 0;
nodes = (
(-108,700,l),
(432,400,l)
);
}
);
width = 446;
},
{
background = {
shapes = (
{
closed = 1;
nodes = (
(-59,800,l),
(270,0,l),
(604,800,l)
);
}
);
};
layerId = "6AEB73DF-AB25-40A2-91CF-25D7B6E2A2D2";
shapes = (
{
attr = {
identifier = ID0x11680f150;
lineCapEnd = 4;
lineCapStart = 4;
strokeHeight = 50;
strokeWidth = 50;
};
closed = 0;
nodes = (
(521,600,l),
(-19,700,l),
(228,100,l),
(310,100,l),
(561,700,l)
);
}
);
width = 546;
},
{
layerId = m01;
width = 600;
}
);
unicode = 111;
},
{
glyphname = p;
lastChange = "2025-09-30 06:35:50 +0000";
layers = (
{
background = {
shapes = (
{
ref = _A;
}
);
};
layerId = m003;
shapes = (
{
attr = {
lineCapEnd = "4";
lineCapStart = "4";
};
closed = 0;
nodes = (
(-150,-101,l),
(184,700,l),
(267,700,l),
(554,0,l),
(-124,200,l)
);
}
);
width = 446;
},
{
background = {
shapes = (
{
closed = 1;
nodes = (
(232,800,l),
(-97,0,l),
(566,0,l)
);
}
);
};
layerId = "6AEB73DF-AB25-40A2-91CF-25D7B6E2A2D2";
shapes = (
{
attr = {
lineCapEnd = 4;
lineCapStart = 4;
strokeHeight = 50;
strokeWidth = 50;
};
closed = 0;
nodes = (
(-100,0,l),
(188,700,l),
(270,700,l),
(522,100,l),
(-96,200,l)
);
}
);
width = 466;
},
{
layerId = m01;
width = 600;
}
);
unicode = 112;
},
{
glyphname = q;
lastChange = "2025-09-30 06:35:50 +0000";
layers = (
{
background = {
shapes = (
{
ref = _B;
}
);
};
layerId = m003;
shapes = (
{
attr = {
lineCapEnd = "4";
lineCapStart = "4";
};
closed = 0;
nodes = (
(225,-101,l),
(556,700,l),
(-108,700,l),
(100,200,l),
(432,400,l)
);
},
{
attr = {
lineCapEnd = "4";
lineCapStart = "4";
};
closed = 0;
nodes = (
(142,100,l),
(308,100,l)
);
}
);
width = 446;
},
{
background = {
shapes = (
{
closed = 1;
nodes = (
(-100,800,l),
(229,0,l),
(563,800,l)
);
}
);
};
layerId = "6AEB73DF-AB25-40A2-91CF-25D7B6E2A2D2";
shapes = (
{
attr = {
lineCapEnd = 4;
lineCapStart = 4;
strokeHeight = 50;
strokeWidth = 50;
};
closed = 0;
nodes = (
(229,0,l),
(518,700,l),
(-57,700,l),
(106,300,l),
(396,400,l)
);
},
{
attr = {
lineCapEnd = 4;
lineCapStart = 4;
strokeHeight = 50;
strokeWidth = 50;
};
closed = 0;
nodes = (
(149,200,l),
(312,200,l)
);
}
);
width = 463;
},
{
layerId = m01;
width = 600;
}
);
unicode = 113;
},
{
glyphname = r;
lastChange = "2025-09-30 06:35:50 +0000";
layers = (
{
background = {
shapes = (
{
ref = _A;
}
);
};
layerId = m003;
shapes = (
{
attr = {
lineCapEnd = "4";
lineCapStart = "4";
};
closed = 0;
nodes = (
(-108,0,l),
(184,700,l),
(267,700,l),
(431,300,l),
(17,300,l)
);
},
{
attr = {
lineCapEnd = "4";
lineCapStart = "4";
};
closed = 0;
nodes = (
(117,300,l),
(556,0,l)
);
}
);
width = 446;
},
{
background = {
shapes = (
{
closed = 1;
nodes = (
(260,800,l),
(-69,0,l),
(594,0,l)
);
}
);
};
layerId = "6AEB73DF-AB25-40A2-91CF-25D7B6E2A2D2";
shapes = (
{
attr = {
lineCapEnd = 4;
lineCapStart = 4;
strokeWidth = 50;
};
closed = 0;
nodes = (
(-73,0,l),
(215,700,l)
);
},
{
attr = {
lineCapEnd = 4;
lineCapStart = 4;
strokeWidth = 50;
};
closed = 0;
nodes = (
(138,500,l),
(298,700,l),
(465,300,l)
);
}
);
width = 517;
},
{
layerId = m01;
width = 600;
}
);
unicode = 114;
},
{
color = 0;
glyphname = s;
lastChange = "2025-09-30 06:35:50 +0000";
layers = (
{
background = {
shapes = (
{
ref = _B;
}
);
};
layerId = m003;
shapes = (
{
attr = {
identifier = ID0x126640c30;
lineCapEnd = "4";
lineCapStart = "4";
};
closed = 0;
nodes = (
(59,301,l),
(184,0,l),
(267,0,l),
(390,300,l),
(-24,500,l),
(-108,700,l),
(555,700,l),
(472,500,l)
);
}
);
width = 446;
},
{
background = {
shapes = (
{
closed = 1;
nodes = (
(-100,800,l),
(229,0,l),
(563,800,l)
);
}
);
};
layerId = "6AEB73DF-AB25-40A2-91CF-25D7B6E2A2D2";
shapes = (
{
attr = {
identifier = ID0x126640c30;
lineCapEnd = 4;
lineCapStart = 4;
strokeHeight = 50;
strokeWidth = 50;
};
closed = 0;
nodes = (
(66,401,l),
(189,100,l),
(271,100,l),
(398,400,l),
(24,500,l),
(-58,700,l),
(522,700,l),
(438,500,l)
);
}
);
width = 463;
},
{
layerId = m01;
shapes = (
{
closed = 1;
nodes = (
(354,12,l),
(-34,221,l),
(-100,0,l),
(363,0,l)
);
},
{
closed = 1;
nodes = (
(26,421,l),
(-27,245,l),
(288,245,l),
(288,256,l)
);
},
{
closed = 1;
nodes = (
(26,421,l),
(239,421,l),
(134,780,l)
);
},
{
closed = 1;
nodes = (
(288,256,l),
(280,249,l),
(353,0,l),
(363,0,l)
);
}
);
width = 263;
}
);
unicode = 115;
},
{
glyphname = t;
lastChange = "2025-09-30 06:35:50 +0000";
layers = (
{
background = {
shapes = (
{
ref = _A;
}
);
};
layerId = m003;
shapes = (
{
attr = {
lineCapEnd = "4";
lineCapStart = "4";
};
closed = 0;
nodes = (
(224,797,l),
(-108,0,l),
(515,100,l),
(390,400,l)
);
},
{
attr = {
lineCapEnd = "4";
lineCapStart = "4";
};
closed = 0;
nodes = (
(347,500,l),
(103,500,l)
);
}
);
width = 446;
},
{
background = {
shapes = (
{
closed = 1;
nodes = (
(566,0,l),
(237,800,l),
(-97,0,l)
);
}
);
};
layerId = "6AEB73DF-AB25-40A2-91CF-25D7B6E2A2D2";
shapes = (
{
attr = {
lineCapEnd = 4;
lineCapStart = 4;
strokeHeight = 50;
strokeWidth = 50;
};
closed = 0;
nodes = (
(231,797,l),
(-97,0,l),
(524,100,l),
(399,400,l)
);
},
{
attr = {
lineCapEnd = 4;
lineCapStart = 4;
strokeHeight = 50;
strokeWidth = 50;
};
closed = 0;
nodes = (
(353,500,l),
(109,500,l)
);
}
);
width = 463;
},
{
layerId = m01;
width = 600;
}
);
unicode = 116;
},
{
glyphname = u;
lastChange = "2025-09-30 06:35:50 +0000";
layers = (
{
background = {
shapes = (
{
ref = _B;
}
);
};
layerId = m003;
shapes = (
{
attr = {
lineCapEnd = "4";
lineCapStart = "4";
};
closed = 0;
nodes = (
(267,0,l),
(555,700,l)
);
},
{
attr = {
lineCapEnd = "4";
lineCapStart = "4";
};
closed = 0;
nodes = (
(349,200,l),
(142,100,l),
(-108,700,l)
);
}
);
width = 446;
},
{
background = {
shapes = (
{
closed = 1;
nodes = (
(-100,800,l),
(229,0,l),
(563,800,l)
);
}
);
};
layerId = "6AEB73DF-AB25-40A2-91CF-25D7B6E2A2D2";
shapes = (
{
attr = {
lineCapEnd = 4;
lineCapStart = 4;
strokeHeight = 50;
strokeWidth = 50;
};
closed = 0;
nodes = (
(232,0,l),
(523,700,l)
);
},
{
attr = {
lineCapEnd = 4;
lineCapStart = 4;
strokeHeight = 50;
strokeWidth = 50;
};
closed = 0;
nodes = (
(314,200,l),
(189,100,l),
(-57,700,l)
);
}
);
width = 463;
},
{
layerId = m01;
width = 600;
}
);
unicode = 117;
},
{
glyphname = v;
lastChange = "2025-09-30 06:35:50 +0000";
layers = (
{
background = {
shapes = (
{
ref = _A;
}
);
};
layerId = m003;
shapes = (
{
attr = {
lineCapEnd = "4";
lineCapStart = "4";
};
closed = 0;
nodes = (
(184,700,l),
(-108,0,l),
(474,200,l)
);
}
);
width = 446;
},
{
background = {
shapes = (
{
closed = 1;
nodes = (
(229,800,l),
(-100,0,l),
(563,0,l)
);
}
);
};
layerId = "6AEB73DF-AB25-40A2-91CF-25D7B6E2A2D2";
shapes = (
{
attr = {
lineCapEnd = 4;
lineCapStart = 4;
strokeHeight = 50;
strokeWidth = 50;
};
closed = 0;
nodes = (
(190,700,l),
(-98,0,l),
(474,200,l)
);
}
);
width = 465;
},
{
layerId = m01;
width = 600;
}
);
unicode = 118;
},
{
glyphname = w;
lastChange = "2025-09-30 06:35:50 +0000";
layers = (
{
background = {
shapes = (
{
ref = _B;
}
);
};
guides = (
{
angle = 90;
pos = (229,381);
}
);
layerId = m003;
shapes = (
{
attr = {
lineCapEnd = "4";
lineCapStart = "4";
};
closed = 0;
nodes = (
(-108,700,l),
(184,0,l),
(249,600,l),
(391,300,l),
(556,700,l)
);
}
);
width = 446;
},
{
background = {
shapes = (
{
closed = 1;
nodes = (
(-100,800,l),
(229,0,l),
(563,800,l)
);
}
);
};
guides = (
{
angle = 90;
pos = (229,381);
}
);
layerId = "6AEB73DF-AB25-40A2-91CF-25D7B6E2A2D2";
shapes = (
{
attr = {
lineCapEnd = 4;
lineCapStart = 4;
strokeHeight = 50;
strokeWidth = 50;
};
closed = 0;
nodes = (
(-57,700,l),
(230,0,l),
(230,500,l),
(356,300,l),
(523,700,l)
);
}
);
width = 463;
},
{
layerId = m01;
width = 600;
}
);
unicode = 119;
},
{
glyphname = x;
lastChange = "2025-09-30 06:35:50 +0000";
layers = (
{
background = {
shapes = (
{
ref = _A;
}
);
};
layerId = m003;
shapes = (
{
attr = {
lineCapEnd = "4";
lineCapStart = "4";
};
closed = 0;
nodes = (
(-107,0,l),
(99,500,l),
(310,600,l)
);
},
{
attr = {
lineCapEnd = "4";
lineCapStart = "4";
};
closed = 0;
nodes = (
(556,0,l),
(181,700,l)
);
}
);
width = 446;
},
{
background = {
shapes = (
{
closed = 1;
nodes = (
(229,800,l),
(-100,0,l),
(563,0,l)
);
}
);
};
layerId = "6AEB73DF-AB25-40A2-91CF-25D7B6E2A2D2";
shapes = (
{
attr = {
lineCapEnd = 4;
lineCapStart = 4;
strokeHeight = 50;
strokeWidth = 50;
};
closed = 0;
nodes = (
(-99,0,l),
(107,500,l),
(318,600,l)
);
},
{
attr = {
lineCapEnd = 4;
lineCapStart = 4;
strokeHeight = 50;
strokeWidth = 50;
};
closed = 0;
nodes = (
(564,0,l),
(189,700,l)
);
}
);
width = 464;
},
{
layerId = m01;
width = 600;
}
);
unicode = 120;
},
{
glyphname = y;
lastChange = "2025-09-30 06:35:50 +0000";
layers = (
{
background = {
shapes = (
{
ref = _B;
}
);
};
layerId = m003;
shapes = (
{
attr = {
lineCapEnd = "4";
lineCapStart = "4";
};
closed = 0;
nodes = (
(100,200,l),
(226,-100,l),
(555,700,l)
);
},
{
attr = {
lineCapEnd = "4";
lineCapStart = "4";
};
closed = 0;
nodes = (
(-109,700,l),
(17,400,l),
(390,300,l)
);
}
);
width = 446;
},
{
background = {
shapes = (
{
closed = 1;
nodes = (
(-100,800,l),
(229,0,l),
(563,800,l)
);
}
);
};
layerId = "6AEB73DF-AB25-40A2-91CF-25D7B6E2A2D2";
shapes = (
{
attr = {
lineCapEnd = 4;
lineCapStart = 4;
strokeHeight = 50;
strokeWidth = 50;
};
closed = 0;
nodes = (
(106,300,l),
(230,0,l),
(521,700,l)
);
},
{
attr = {
lineCapEnd = 4;
lineCapStart = 4;
strokeHeight = 50;
strokeWidth = 50;
};
closed = 0;
nodes = (
(-59,700,l),
(64,400,l),
(354,300,l)
);
}
);
width = 463;
},
{
layerId = m01;
width = 600;
}
);
unicode = 121;
},
{
glyphname = z;
lastChange = "2025-09-30 06:35:50 +0000";
layers = (
{
background = {
shapes = (
{
ref = _A;
}
);
};
layerId = m003;
shapes = (
{
attr = {
lineCapEnd = "4";
lineCapStart = "4";
};
closed = 0;
nodes = (
(-108,0,l),
(268,700,l),
(184,700,l)
);
},
{
attr = {
lineCapEnd = "4";
lineCapStart = "4";
};
closed = 0;
nodes = (
(-56,100,l),
(555,0,l),
(390,401,l)
);
}
);
width = 446;
},
{
background = {
shapes = (
{
closed = 1;
nodes = (
(229,800,l),
(-100,0,l),
(563,0,l)
);
}
);
};
layerId = "6AEB73DF-AB25-40A2-91CF-25D7B6E2A2D2";
shapes = (
{
attr = {
lineCapEnd = 4;
lineCapStart = 4;
strokeHeight = 50;
strokeWidth = 50;
};
closed = 0;
nodes = (
(-99,0,l),
(272,700,l),
(188,700,l)
);
},
{
attr = {
lineCapEnd = 4;
lineCapStart = 4;
strokeHeight = 50;
strokeWidth = 50;
};
closed = 0;
nodes = (
(-47,100,l),
(564,0,l),
(396,401,l)
);
}
);
width = 464;
},
{
layerId = m01;
width = 600;
}
);
unicode = 122;
},
{
glyphname = dotaccentcomb;
lastChange = "2025-09-30 06:35:50 +0000";
layers = (
{
anchors = (
{
name = _top;
pos = (0,700);
}
);
background = {
shapes = (
{
attr = {
lineCapEnd = "1";
lineCapStart = "1";
strokeHeight = 50;
strokeWidth = 55;
};
closed = 0;
nodes = (
(29,530,l),
(29,486,l)
);
}
);
};
layerId = m003;
shapes = (
{
ref = dotaccent;
}
);
width = 83;
},
{
anchors = (
{
name = _top;
pos = (30,360);
},
{
name = top;
pos = (30,545);
}
);
associatedMasterId = m003;
background = {
shapes = (
{
attr = {
lineCapEnd = "1";
lineCapStart = "1";
strokeHeight = 50;
strokeWidth = 55;
};
closed = 0;
nodes = (
(29,530,l),
(29,486,l)
);
}
);
};
layerId = m004;
name = GuideLine;
shapes = (
{
closed = 1;
nodes = (
(55,459,o),
(69,479,o),
(69,507,cs),
(69,534,o),
(55,554,o),
(29,554,cs),
(2,554,o),
(-12,534,o),
(-12,507,cs),
(-12,479,o),
(2,459,o),
(29,459,cs)
);
}
);
width = 59;
},
{
anchors = (
{
name = _top;
pos = (30,360);
},
{
name = top;
pos = (30,545);
}
);
associatedMasterId = m003;
background = {
shapes = (
{
attr = {
lineCapEnd = "1";
lineCapStart = "1";
strokeHeight = 50;
strokeWidth = 55;
};
closed = 0;
nodes = (
(29,530,l),
(29,486,l)
);
}
);
};
layerId = m005;
name = InGDL;
shapes = (
{
closed = 1;
nodes = (
(55,459,o),
(69,479,o),
(69,507,cs),
(69,534,o),
(55,554,o),
(29,554,cs),
(2,554,o),
(-12,534,o),
(-12,507,cs),
(-12,479,o),
(2,459,o),
(29,459,cs)
);
}
);
width = 59;
},
{
anchors = (
{
name = _top;
pos = (30,360);
},
{
name = top;
pos = (30,545);
}
);
background = {
shapes = (
{
attr = {
lineCapEnd = "1";
lineCapStart = "1";
strokeHeight = 50;
strokeWidth = 55;
};
closed = 0;
nodes = (
(29,530,l),
(29,486,l)
);
}
);
};
layerId = "6AEB73DF-AB25-40A2-91CF-25D7B6E2A2D2";
shapes = (
{
closed = 1;
nodes = (
(55,459,o),
(69,479,o),
(69,507,cs),
(69,534,o),
(55,554,o),
(29,554,cs),
(2,554,o),
(-12,534,o),
(-12,507,cs),
(-12,479,o),
(2,459,o),
(29,459,cs)
);
}
);
width = 59;
},
{
anchors = (
{
name = _top;
pos = (30,360);
},
{
name = top;
pos = (30,545);
}
);
background = {
shapes = (
{
attr = {
lineCapEnd = "1";
lineCapStart = "1";
strokeHeight = 50;
strokeWidth = 55;
};
closed = 0;
nodes = (
(29,530,l),
(29,486,l)
);
}
);
};
layerId = m01;
shapes = (
{
closed = 1;
nodes = (
(55,459,o),
(69,479,o),
(69,507,cs),
(69,534,o),
(55,554,o),
(29,554,cs),
(2,554,o),
(-12,534,o),
(-12,507,cs),
(-12,479,o),
(2,459,o),
(29,459,cs)
);
}
);
width = 59;
}
);
unicode = 775;
},
{
glyphname = dotaccent;
lastChange = "2025-09-30 06:35:50 +0000";
layers = (
{
background = {
shapes = (
{
attr = {
identifier = ID0x159a44470;
lineCapEnd = "4";
lineCapStart = "4";
};
closed = 1;
nodes = (
(0,701,l),
(-334,-100,l),
(412,-100,l),
(83,701,l)
);
}
);
};
layerId = m003;
shapes = (
{
attr = {
identifier = ID0x159a44470;
lineCapEnd = "4";
lineCapStart = "4";
};
closed = 1;
nodes = (
(83,700,l),
(42,801,l),
(0,700,l)
);
}
);
width = 83;
},
{
layerId = "6AEB73DF-AB25-40A2-91CF-25D7B6E2A2D2";
width = 300;
},
{
layerId = m01;
width = 300;
}
);
unicode = 729;
},
{
glyphname = Idotless;
lastChange = "2025-09-30 06:35:50 +0000";
layers = (
{
anchors = (
{
name = top;
pos = (184,700);
}
);
background = {
shapes = (
{
ref = _A;
}
);
};
layerId = m003;
shapes = (
{
attr = {
identifier = ID0x1053d5160;
lineCapEnd = "4";
lineCapStart = "4";
};
closed = 0;
nodes = (
(142,600,l),
(-107,0,l),
(556,0,l),
(389,400,l)
);
}
);
width = 446;
},
{
layerId = "6AEB73DF-AB25-40A2-91CF-25D7B6E2A2D2";
shapes = (
{
ref = i;
}
);
width = 463;
},
{
layerId = m01;
shapes = (
{
ref = i;
}
);
width = 264;
}
);
},
{
glyphname = Jdotless;
lastChange = "2025-09-30 06:35:50 +0000";
layers = (
{
anchors = (
{
name = top;
pos = (472,700);
}
);
guides = (
{
angle = 67.6363;
pos = (370,249);
}
);
layerId = m003;
shapes = (
{
attr = {
identifier = ID0x1053d76c0;
lineCapEnd = "4";
lineCapStart = "4";
};
closed = 0;
nodes = (
(293,299,l),
(59,299,l),
(226,-101,l),
(514,599,l)
);
}
);
width = 446;
},
{
layerId = "6AEB73DF-AB25-40A2-91CF-25D7B6E2A2D2";
shapes = (
{
ref = j;
}
);
width = 463;
},
{
layerId = m01;
shapes = (
{
ref = j;
}
);
width = 264;
}
);
},
{
export = 0;
glyphname = _A;
lastChange = "2025-09-30 06:35:50 +0000";
layers = (
{
background = {
shapes = (
{
attr = {
identifier = ID0x108b4c3a0;
lineCapEnd = "4";
lineCapStart = "4";
};
closed = 0;
nodes = (
(555,0,l),
(267,700,l),
(184,700,l)
);
},
{
attr = {
identifier = ID0x108b4c3a0;
lineCapEnd = "4";
lineCapStart = "4";
};
closed = 0;
nodes = (
(142,600,l),
(-108,0,l),
(510,100,l)
);
}
);
};
layerId = m003;
shapes = (
{
attr = {
identifier = ID0x108b4c3a0;
lineCapEnd = "4";
lineCapStart = "4";
};
closed = 1;
nodes = (
(226,801,l),
(-150,-100,l),
(596,-100,l)
);
}
);
width = 446;
},
{
layerId = "6AEB73DF-AB25-40A2-91CF-25D7B6E2A2D2";
width = 600;
},
{
layerId = m01;
width = 600;
}
);
},
{
export = 0;
glyphname = _B;
lastChange = "2025-09-30 06:35:50 +0000";
layers = (
{
layerId = m003;
shapes = (
{
attr = {
identifier = ID0x108b4c3a0;
lineCapEnd = "4";
lineCapStart = "4";
};
closed = 1;
nodes = (
(-150,800,l),
(226,-101,l),
(596,800,l)
);
}
